<?xml version="1.0" encoding="UTF-8"?>
<!DOCTYPE svg PUBLIC "-//W3C//DTD SVG 1.1//EN" "http://www.w3.org/Graphics/SVG/1.1/DTD/svg11.dtd">
<!-- Creator: CorelDRAW -->
<svg xmlns="http://www.w3.org/2000/svg" xml:space="preserve" width="466.028mm" height="81.9908mm" version="1.1" style="shape-rendering:geometricPrecision; text-rendering:geometricPrecision; image-rendering:optimizeQuality; fill-rule:evenodd; clip-rule:evenodd"
viewBox="0 0 47877.16 8423.28"
 xmlns:xlink="http://www.w3.org/1999/xlink"
 xmlns:xodm="http://www.corel.com/coreldraw/odm/2003">
 <defs>
  <style type="text/css">
   <![CDATA[
    .fil3 {fill:none;fill-rule:nonzero}
    .fil0 {fill:#FEFEFE;fill-rule:nonzero}
    .fil1 {fill:#FEFEFE;fill-rule:nonzero;fill-opacity:0.000000}
    .fil2 {fill:#FEFEFE;fill-rule:nonzero}
   ]]>
  </style>
   <clipPath id="id0" style="clip-rule:nonzero">
    <path d="M46635.12 481.57l0 5843.15c685.96,0 1242.04,-555.92 1242.04,-1241.75l0 -4601.4 -1242.04 0zm-4792.23 0l2143.51 5843.15 1197.38 0 0 -5843.15 -3340.9 0zm-3789.38 0c-685.97,0 -1242.05,555.95 -1242.05,1241.75l0 4601.4 906.17 0 2143.56 -5843.15 -1807.68 0zm1190.85 5843.15l3206.97 0 -1607.68 -4646.05 -1599.29 4646.05z"/>
   </clipPath>
   <clipPath id="id1" style="clip-rule:nonzero">
    <path d="M46635.12 481.57l0 5843.15c685.96,0 1242.04,-555.92 1242.04,-1241.75l0 -4601.4 -1242.04 0zm-4792.23 0l2143.51 5843.15 1197.38 0 0 -5843.15 -3340.9 0zm-3789.38 0c-685.97,0 -1242.05,555.95 -1242.05,1241.75l0 4601.4 906.17 0 2143.56 -5843.15 -1807.68 0zm1190.85 5843.15l3206.97 0 -1607.68 -4646.05 -1599.29 4646.05z"/>
   </clipPath>
 </defs>
 <g id="Layer_x0020_1">
  <metadata id="CorelCorpID_0Corel-Layer"/>
  <g id="_2182867993056">
   <path class="fil0" d="M3875.04 2512.89c-99.2,-182.62 -241.45,-322.2 -426.65,-418.85 -185.31,-96.48 -403.16,-144.82 -653.67,-144.82 -433.24,0 -780.27,142.29 -1041.17,426.68 -261.02,284.5 -391.42,664.18 -391.42,1139 0,506.31 137,901.59 410.99,1186.02 273.99,284.5 650.99,426.65 1131.2,426.65 328.79,0 606.7,-83.43 833.72,-250.54 227.02,-166.93 392.65,-407.04 497.1,-720.2l-1698.76 0 0 -986.34 2912.14 0 0 1244.67c-99.2,334.08 -267.51,644.64 -504.93,931.58 -237.53,287.11 -538.92,519.35 -904.17,696.76 -365.37,177.48 -777.69,266.16 -1236.88,266.16 -542.84,0 -1026.86,-118.66 -1452.16,-356.19 -425.41,-237.42 -756.78,-567.59 -994.2,-990.32 -237.53,-422.73 -356.19,-905.37 -356.19,-1448.24 0,-542.7 118.66,-1026.72 356.19,-1452.13 237.42,-425.3 567.56,-756.67 990.29,-994.23 422.73,-237.39 905.41,-356.19 1448.25,-356.19 657.58,0 1212.05,159.28 1663.52,477.56 451.36,318.39 750.18,759.32 896.35,1322.99l-1479.55 0z"/>
   <path class="fil0" d="M7843.95 6270.47l-1338.65 0 0 -4368.22 1338.65 0 0 4368.22zm-1240.8 -5029.72c-148.74,-138.19 -223.11,-309.18 -223.11,-512.72 0,-208.68 74.37,-382.25 223.11,-520.63 148.74,-138.19 340.53,-207.41 575.39,-207.41 229.59,0 418.82,69.22 567.56,207.41 148.74,138.37 223.14,311.94 223.14,520.63 0,203.54 -74.4,374.53 -223.14,512.72 -148.74,138.34 -337.97,207.49 -567.56,207.49 -234.85,0 -426.65,-69.15 -575.39,-207.49z"/>
   <path class="fil0" d="M11855.99 3295.71c-185.3,-192.99 -410.99,-289.65 -677.15,-289.65 -266.16,0 -491.95,95.28 -677.15,285.74 -185.3,190.56 -277.91,452.85 -277.91,786.75 0,334.03 92.6,598.86 277.91,794.57 185.2,195.71 410.99,293.56 677.15,293.56 266.16,0 491.85,-96.52 677.15,-289.65 185.2,-192.99 277.91,-456.62 277.91,-790.66 0,-333.9 -92.71,-597.53 -277.91,-790.67zm-258.34 -1268.2c232.17,125.25 410.99,289.65 536.24,493.19l0 -618.44 1338.64 0 0 4360.39c0,401.82 -79.62,765.83 -238.77,1092.06 -159.25,326.11 -401.92,585.78 -728.03,778.92 -326.21,192.99 -731.95,289.65 -1217.31,289.65 -647.18,0 -1171.68,-152.62 -1573.5,-457.96 -401.93,-305.31 -631.52,-718.98 -688.9,-1240.8l1322.99 0c41.72,166.96 140.91,298.71 297.48,395.33 156.57,96.51 349.6,144.82 579.3,144.82 276.57,0 497.1,-79.63 661.5,-238.77 164.4,-159.25 246.59,-413.67 246.59,-763.27l0 -618.44c-130.5,203.54 -310.56,369.27 -540.16,497.1 -229.7,127.94 -498.44,191.8 -806.32,191.8 -360.11,0 -686.32,-92.6 -978.55,-277.91 -292.33,-185.2 -523.27,-448.8 -692.81,-790.67 -169.65,-341.73 -254.42,-737.1 -254.42,-1185.99 0,-448.8 84.78,-842.74 254.42,-1182.08 169.54,-339.2 400.48,-600.06 692.81,-782.84 292.23,-182.63 618.44,-273.99 978.55,-273.99 307.89,0 577.96,62.63 810.24,187.88z"/>
   <path class="fil0" d="M17484.47 3295.71c-185.31,-192.99 -410.99,-289.65 -677.15,-289.65 -266.16,0 -491.95,95.28 -677.15,285.74 -185.31,190.56 -277.91,452.85 -277.91,786.75 0,334.03 92.59,598.86 277.91,794.57 185.2,195.71 410.99,293.56 677.15,293.56 266.16,0 491.84,-96.52 677.15,-289.65 185.2,-192.99 277.91,-456.62 277.91,-790.66 0,-333.9 -92.71,-597.53 -277.91,-790.67zm-2739.93 -399.25c169.54,-339.2 400.48,-600.06 692.81,-782.84 292.22,-182.63 618.44,-273.99 978.55,-273.99 307.87,0 577.95,62.63 810.24,187.88 232.17,125.25 410.99,289.65 536.24,493.19l0 -618.44 1338.65 0 0 4368.22 -1338.65 0 0 -618.44c-130.51,203.54 -311.9,367.93 -544.07,493.19 -232.28,125.25 -502.36,187.88 -810.24,187.88 -354.96,0 -678.5,-92.6 -970.72,-277.91 -292.33,-185.2 -523.27,-448.8 -692.81,-790.67 -169.66,-341.73 -254.42,-737.1 -254.42,-1185.99 0,-448.8 84.77,-842.74 254.42,-1182.08z"/>
   <path class="fil0" d="M21292.87 6129.58c-318.39,-130.4 -572.82,-323.53 -763.27,-579.3 -190.56,-255.65 -291,-563.64 -301.39,-923.78l1424.75 0c20.76,203.57 91.26,358.9 211.37,465.82 119.99,107.03 276.53,160.48 469.7,160.48 198.28,0 354.85,-45.62 469.7,-137.03 114.74,-91.23 172.22,-217.82 172.22,-379.65 0,-135.65 -45.74,-247.83 -137,-336.62 -91.37,-88.72 -203.54,-161.7 -336.62,-219.18 -133.08,-57.37 -322.31,-122.57 -567.56,-195.74 -355,-109.57 -644.64,-219.16 -868.94,-328.76 -224.49,-109.6 -417.63,-271.31 -579.3,-485.36 -161.83,-213.93 -242.68,-493.19 -242.68,-837.67 0,-511.38 185.2,-911.97 555.81,-1201.62 370.5,-289.65 853.28,-434.47 1448.24,-434.47 605.35,0 1093.29,144.82 1463.91,434.47 370.5,289.65 568.79,692.78 594.96,1209.48l-1448.25 0c-10.51,-177.37 -75.72,-317.05 -195.71,-418.85 -120.15,-101.74 -273.99,-152.65 -461.87,-152.65 -161.83,0 -292.33,43.09 -391.42,129.2 -99.2,86.11 -148.74,210.13 -148.74,371.85 0,177.48 83.43,315.82 250.51,414.9 166.93,99.2 427.88,206.22 782.84,320.93 354.85,120.14 643.16,234.88 865.03,344.45 221.73,109.63 413.56,268.88 575.39,477.56 161.67,208.8 242.68,477.53 242.68,806.31 0,313.13 -79.66,597.64 -238.77,853.29 -159.25,255.77 -390.19,459.31 -692.81,610.61 -302.74,151.39 -660.26,226.99 -1072.49,226.99 -401.97,0 -762.03,-65.16 -1080.3,-195.68z"/>
   <path class="fil0" d="M28260.05 3663.66c0,-229.59 -78.28,-412.22 -234.85,-547.99 -156.57,-135.65 -352.28,-203.54 -587.13,-203.54 -224.45,0 -413.71,65.31 -567.56,195.71 -154,130.51 -249.28,315.82 -285.74,555.81l1675.27 0zm1346.48 743.68l-3029.58 0c20.8,271.42 108.25,478.84 262.25,622.32 153.89,143.62 343.1,215.31 567.56,215.31 333.94,0 566.21,-140.91 696.72,-422.73l1424.76 0c-73.14,287.08 -204.88,545.42 -395.33,775.01 -190.56,229.7 -429.37,409.76 -716.3,540.16 -287.11,130.47 -608.04,195.68 -962.89,195.68 -428.02,0 -809,-91.23 -1142.94,-273.96 -334.05,-182.62 -594.96,-443.54 -782.84,-782.84 -187.88,-339.19 -281.82,-735.9 -281.82,-1189.9 0,-454.05 92.59,-850.61 277.91,-1189.91 185.2,-339.19 444.87,-600.1 778.92,-782.87 333.94,-182.63 717.53,-273.96 1150.77,-273.96 422.73,0 798.49,88.79 1127.29,266.16 328.79,177.48 585.78,430.56 771.09,759.35 185.2,328.79 277.91,712.38 277.91,1150.77 0,125.25 -7.83,255.77 -23.49,391.41z"/>
   <polygon class="fil0" points="31986.33,6270.47 30647.64,6270.47 30647.64,477.49 31986.33,477.49 "/>
   <polygon class="fil0" points="34608.79,6270.47 33270.11,6270.47 33270.11,477.49 34608.79,477.49 "/>
  </g>
  <g style="clip-path:url(#id0)">
   <polygon class="fil1" points="36811.46,481.57 47877.16,481.57 47877.16,6324.72 36811.46,6324.72 "/>
  </g>
  <g style="clip-path:url(#id1)">
   <g id="_2182867996272">
    <path id="_1" class="fil2" d="M46635.12 481.57l0 5843.15c685.96,0 1242.04,-555.92 1242.04,-1241.75l0 -4601.4 -1242.04 0zm-4792.23 0l2143.51 5843.15 1197.38 0 0 -5843.15 -3340.9 0zm-3789.38 0c-685.97,0 -1242.05,555.95 -1242.05,1241.75l0 4601.4 906.17 0 2143.56 -5843.15 -1807.68 0zm1190.85 5843.15l3206.97 0 -1607.68 -4646.05 -1599.29 4646.05z"/>
   </g>
  </g>
  <path class="fil3" d="M46635.12 481.57l0 5843.15c685.96,0 1242.04,-555.92 1242.04,-1241.75l0 -4601.4 -1242.04 0zm-4792.23 0l2143.51 5843.15 1197.38 0 0 -5843.15 -3340.9 0zm-3789.38 0c-685.97,0 -1242.05,555.95 -1242.05,1241.75l0 4601.4 906.17 0 2143.56 -5843.15 -1807.68 0zm1190.85 5843.15l3206.97 0 -1607.68 -4646.05 -1599.29 4646.05z"/>
 </g>
</svg>
