<svg id="Group_54" data-name="Group 54" xmlns="http://www.w3.org/2000/svg" xmlns:xlink="http://www.w3.org/1999/xlink" width="313.649" height="97.17" viewBox="0 0 313.649 97.17">
  <defs>
    <clipPath id="clip-path">
      <rect id="Rectangle_1" data-name="Rectangle 1" width="313.649" height="97.17" fill="none"/>
    </clipPath>
  </defs>
  <g id="Group_1" data-name="Group 1" clip-path="url(#clip-path)">
    <path id="Path_1" data-name="Path 1" d="M0,69.793a.757.757,0,0,0,.256-.607c.126-1.334.465-2.631.614-3.963.258-2.3.558-4.612.993-6.889.347-1.814.445-3.67.876-5.451.289-1.193.311-2.412.559-3.606a22.931,22.931,0,0,0,.544-3.686,27.592,27.592,0,0,1,.414-2.985c.22-1.438.462-2.873.672-4.313a36.711,36.711,0,0,1,.634-4.342c.318-1.168.181-2.364.511-3.51.514-1.783.461-3.658.85-5.464.414-1.923.488-3.9.875-5.824.288-1.43.394-2.881.667-4.313.312-1.637.464-3.3.742-4.947.147-.866.24-1.739.386-2.605A40.268,40.268,0,0,0,10.215,2.8a19.581,19.581,0,0,0,.437-2.58c-.017-.221.234-.191.388-.2.377-.012.755-.009,1.133-.009Q22.546.009,32.919,0c.6,0,.818.026.678.788-.416,2.267-.821,4.541-1.124,6.824-.287,2.154-1.833,11.359-2.019,12.545-.192,1.231-.355,2.466-.566,3.693-.093.544.228.5.572.5q4.921-.005,9.842,0c3.186,0,6.372-.009,9.559.01.486,0,.639-.082.719-.632.363-2.517.884-5.012,1.229-7.531.393-2.875.893-5.733,1.347-8.6.335-2.118.527-4.266,1.068-6.356C54.535.029,54.466.011,55.749.011q10.3,0,20.6,0c.5,0,.765-.074.6.7-.365,1.739-.431,3.538-.756,5.287-.291,1.565-.356,3.156-.692,4.713-.289,1.337-.275,2.722-.583,4.063-.45,1.963-.522,3.985-.9,5.967-.285,1.491-.464,3.022-.646,4.541-.2,1.686-.614,3.348-.788,5.029-.16,1.548-.45,3.072-.657,4.609a20.611,20.611,0,0,1-.456,2.865c-.2.726-.181,1.505-.324,2.264-.355,1.884-.546,3.8-.83,5.7-.224,1.5-.479,3.017-.635,4.54-.181,1.766-.54,3.514-.8,5.273-.219,1.488-.321,3-.628,4.465-.33,1.579-.335,3.2-.75,4.774a12.247,12.247,0,0,0-.379,2.666,32.375,32.375,0,0,1-.442,3.38c-.038.276-.257.23-.436.233-.472.006-.944,0-1.416,0q-10.2,0-20.392.01c-.616,0-.912.009-.736-.812.276-1.289.25-2.642.509-3.936.334-1.67.528-3.357.789-5.035.284-1.832.488-3.677.735-5.515.146-1.082.315-2.161.463-3.243.225-1.651.435-3.3.663-4.954.177-1.284.368-2.566.563-3.848.065-.431-.05-.579-.529-.578q-9.7.026-19.4,0c-.668,0-.837.325-.863.871-.083,1.712-.534,3.382-.662,5.075-.089,1.183-.327,2.337-.49,3.5-.156,1.11-.248,2.238-.46,3.35-.236,1.238-.393,2.518-.528,3.788-.142,1.337-.4,2.663-.51,4-.136,1.648-.563,3.254-.634,4.911-.03.713-.2,1.42-.3,2.131-.05.358-.319.285-.541.286-1.086,0-2.171,0-3.257,0L0,71.068Z" transform="translate(0 0)" fill="#d9251c"/>
    <path id="Path_2" data-name="Path 2" d="M394.123,24.991a22.7,22.7,0,0,0,.615-3.859c.416-2.389.735-4.8,1.085-7.2.314-2.156.607-4.315.925-6.47.209-1.416.471-2.824.656-4.243.088-.669.205-1.332.3-2,.044-.313.161-.391.442-.384.472.011.944,0,1.416,0,5.829,0,11.658.011,17.488-.008.6,0,.786.073.678.747-.383,2.4-.651,4.81-1.028,7.207-.344,2.19-.611,4.39-.948,6.581-.277,1.8-.459,3.628-.736,5.435-.35,2.283-.619,4.577-.958,6.862-.264,1.784-.491,3.579-.733,5.368-.316,2.336-.675,4.666-1,7-.25,1.817-.454,3.64-.706,5.456-.366,2.632-.772,5.259-1.134,7.891-.307,2.236-.557,4.48-.868,6.715-.352,2.522-.756,5.036-1.115,7.557-.172,1.214-.292,2.434-.436,3.652-.045.383-.174.6-.649.6q-8.39-.028-16.779,0c-.466,0-.6-.121-.558-.586.159-1.783.286-3.57.423-5.355.01-.133,0-.268,0-.536a32.124,32.124,0,0,1-2.987,3.138,19.8,19.8,0,0,1-8.343,4.472,22.428,22.428,0,0,1-7.784.5c-.82-.067-1.646-.464-2.449-.61a13.964,13.964,0,0,1-3.829-1.383,17.806,17.806,0,0,1-4.938-3.758,22.725,22.725,0,0,1-4.961-8.777,30.729,30.729,0,0,1-1.271-6.495,41.266,41.266,0,0,1-.077-6.9,36.934,36.934,0,0,1,2.556-11.294,30.2,30.2,0,0,1,4.608-8.01,23.07,23.07,0,0,1,12.225-8.145,21.186,21.186,0,0,1,6.222-.655,18.75,18.75,0,0,1,9.785,2.958,19.922,19.922,0,0,1,4.859,4.521m-2.03,18.342a14.219,14.219,0,0,0-.475-4.163c-.658-2.259-1.755-4.234-4.088-5.154a8.368,8.368,0,0,0-5.044-.472,8.111,8.111,0,0,0-4.1,2.142,14.973,14.973,0,0,0-3.529,5.949,20.562,20.562,0,0,0-1.015,5.162,17.372,17.372,0,0,0,.1,3.921,12.057,12.057,0,0,0,1.583,4.611c1.9,2.9,4.83,3.543,7.855,2.89a9.468,9.468,0,0,0,6.441-5.041,21.218,21.218,0,0,0,2.271-9.844" transform="translate(-220.832 -0.518)" fill="#131110"/>
    <path id="Path_3" data-name="Path 3" d="M651.542,47.782c1.3-2.126,2.5-4.13,3.731-6.116,1.034-1.669,2.092-3.328,3.1-5.01q1.683-2.811,3.386-5.612c1.088-1.8,2.191-3.585,3.275-5.385a.752.752,0,0,1,.725-.432q11.188.015,22.409.008c.027.39-.271.6-.448.842-2.314,3.15-4.621,6.3-6.98,9.421-1.728,2.283-3.448,4.574-5.138,6.882-1.779,2.432-3.575,4.854-5.355,7.285-1.228,1.676-2.407,3.392-3.7,5.016-1.008,1.265-1.9,2.605-2.853,3.907-.132.18-.307.309-.133.607,1.164,2.005,2.21,4.075,3.268,6.138s2.188,4.105,3.219,6.189c1.181,2.387,2.467,4.719,3.672,7.094.912,1.8,1.865,3.578,2.83,5.35.421.773.81,1.565,1.227,2.34.354.659-.167.519-.48.52q-7.011.008-14.021,0c-2.077,0-4.154-.016-6.231.014-.562.008-.854-.229-.909-.734a11.951,11.951,0,0,0-.832-2.435c-.7-2.111-1.572-4.16-2.246-6.285-.2-.64-.549-1.275-.766-1.928a41.509,41.509,0,0,1-1.477-3.929c-.106-.472-.3-.528-.6-.092-.728,1.062-1.484,2.105-2.221,3.161-1.225,1.755-2.441,3.517-3.669,5.271-1.644,2.348-3.25,4.724-4.955,7.027-2.192,2.961-4.174,6.065-6.333,9.048-1.916,2.646-3.745,5.356-5.618,8.033-1.9,2.721-3.823,5.431-5.716,8.159a1.506,1.506,0,0,1-1.381.747c-6.468-.025-12.935-.012-19.4-.026-.3,0-.764.219-.876-.161a1.383,1.383,0,0,1,.155-1.281c1.04-1.376,2.056-2.769,3.079-4.157,2.071-2.813,4.108-5.651,6.225-8.429.889-1.167,1.816-2.315,2.678-3.5,1.578-2.163,3.181-4.307,4.764-6.466,1.683-2.3,3.366-4.591,5.095-6.852,1.185-1.551,2.266-3.179,3.464-4.715,1.64-2.1,3.207-4.261,4.81-6.389,1.519-2.017,3.041-4.04,4.489-6.113,1.137-1.629,2.292-3.243,3.552-4.778a1.3,1.3,0,0,0,.181-1.69c-1.411-2.53-2.742-5.105-4.091-7.67-1.075-2.046-2.124-4.107-3.2-6.152-.975-1.853-2.033-3.665-2.942-5.549-.685-1.421-1.5-2.765-2.22-4.166-.216-.422-.308-.648.351-.646q9.984.028,19.969,0c.478,0,.7.114.848.59.606,1.958,1.219,3.915,1.9,5.846.63,1.772,1.211,3.559,1.765,5.355a13.686,13.686,0,0,0,.623,1.846" transform="translate(-374.519 -15.748)" fill="#d9251c"/>
    <path id="Path_4" data-name="Path 4" d="M240.27,98.562c-3.115,0-6.231-.014-9.346.015-.482,0-.731-.18-.743-.588a8.179,8.179,0,0,1-.173-1.588c.135-.828-.378-1.572-.292-2.418.047-.454-.328-.135-.471-.045-.882.557-1.712,1.187-2.6,1.738a34.551,34.551,0,0,1-6.516,3.271,37.859,37.859,0,0,1-5.115,1.431,19.055,19.055,0,0,1-4.143.257,20.5,20.5,0,0,1-7.2-1.248,17.068,17.068,0,0,1-5.227-3.215,14.2,14.2,0,0,1-4.091-6.308,16.96,16.96,0,0,1-.611-5.687A16.671,16.671,0,0,1,196.15,75.8a13.723,13.723,0,0,1,2.831-3.208,23.448,23.448,0,0,1,9.577-4.564,60.643,60.643,0,0,1,6.194-1.227c3.955-.617,7.932-.96,11.906-1.37a13.544,13.544,0,0,0,4.057-.845c1.346-.584,2.253-1.337,2.121-3.126a4.96,4.96,0,0,0-.222-2.01,4.826,4.826,0,0,0-3.529-2.474,13.514,13.514,0,0,0-4.125-.286,6.386,6.386,0,0,0-4.333,1.886,3.638,3.638,0,0,0-1.117,2.767c.049.536-.151.721-.72.719q-9.168-.032-18.337,0c-.553,0-.7-.185-.656-.683a14.1,14.1,0,0,1,.788-3.459,17.39,17.39,0,0,1,2.463-4.818,19.81,19.81,0,0,1,6.507-5.407,24.765,24.765,0,0,1,5.175-2,26.878,26.878,0,0,1,5.561-1.078c2.638-.182,5.262-.556,7.914-.523a47.759,47.759,0,0,1,5.468.361c.917.117,1.853.147,2.769.322a33.848,33.848,0,0,1,5.323,1.338A23,23,0,0,1,247,48.71a13.161,13.161,0,0,1,4.458,5.112,15.747,15.747,0,0,1,1.45,8.757,55.386,55.386,0,0,1-.764,5.5c-.383,1.832-.446,3.729-.788,5.571-.243,1.308-.432,2.628-.721,3.926a22.771,22.771,0,0,0-.361,2.751c-.1.993-.411,1.935-.515,2.926-.145,1.378-.432,2.742-.646,4.113-.19,1.214-.412,2.426-.531,3.648a7.6,7.6,0,0,0,1.009,4.892c.379.612.936,1.137.811,2.006-.073.513-.193.671-.712.667-3.139-.022-6.277-.011-9.416-.012M220.406,87.71c2.883-.109,5.509-.885,7.47-3.151a11.076,11.076,0,0,0,2.7-5.212c.23-1.21.435-2.416.56-3.639.043-.422-.079-.508-.514-.428-1.021.189-1.951.644-2.945.916-1.624.443-3.27.788-4.912,1.125a21.309,21.309,0,0,0-4.97,1.395c-.142.067-.286.133-.43.2a3.989,3.989,0,0,0-2.106,2.362A5.424,5.424,0,0,0,215.3,85.1a3.023,3.023,0,0,0,1.026,1.541,6.651,6.651,0,0,0,4.079,1.065" transform="translate(-120.934 -27.523)" fill="#d9251c"/>
    <path id="Path_5" data-name="Path 5" d="M555.523,76.509c-6.137,0-12.274.008-18.41-.013-.551,0-.74.116-.7.689a13.746,13.746,0,0,0,.861,4.887,7.724,7.724,0,0,0,4.871,4.5,11.809,11.809,0,0,0,5.13.354c2.334-.3,4.479-1.194,5.6-3.542a1.5,1.5,0,0,1,1.541-.883q8.957.025,17.914,0c.62,0,.76.177.5.723-.41.86-.817,1.742-1.177,2.6a16.469,16.469,0,0,1-1.677,3.2,21.707,21.707,0,0,1-6.373,6.227,30.4,30.4,0,0,1-4.7,2.453,29.736,29.736,0,0,1-4.03,1.24c-1.618.374-3.233.738-4.876.965-1.964.272-3.947.241-5.921.351a41.487,41.487,0,0,1-5.84-.394,20.987,20.987,0,0,1-2.571-.555,29.111,29.111,0,0,1-5.376-1.693,24.741,24.741,0,0,1-8.169-5.581,21.779,21.779,0,0,1-5.238-9.013,24.932,24.932,0,0,1-1.024-5.64,40.468,40.468,0,0,1,.249-7.139,35.8,35.8,0,0,1,1.318-6.449,34.361,34.361,0,0,1,2.037-4.923,24.959,24.959,0,0,1,3.867-5.627,34.346,34.346,0,0,1,2.709-2.59,23.612,23.612,0,0,1,5.2-3.409,44.24,44.24,0,0,1,5.057-2.062,26.663,26.663,0,0,1,5.394-1.141,28.54,28.54,0,0,1,7.1-.265c1.571.158,3.15.275,4.722.44a18.287,18.287,0,0,1,3.517.74c.5.156,1.028.251,1.531.411A22.935,22.935,0,0,1,564.381,48a19.759,19.759,0,0,1,5.652,5.243,21.151,21.151,0,0,1,2.157,3.521,25.915,25.915,0,0,1,1.848,5.14c.305,1.642.664,3.271.809,4.957a53.145,53.145,0,0,1,.1,7.966c-.028.441-.116.878-.162,1.318-.039.376-.308.357-.572.357H555.523ZM546.26,65.9c2.784,0,5.568-.013,8.351.011.529,0,.675-.14.669-.676a12.58,12.58,0,0,0-.755-4,6.889,6.889,0,0,0-5.936-4.85,9.257,9.257,0,0,0-4.031.256,10.4,10.4,0,0,0-2.287.9,9.475,9.475,0,0,0-2.595,2.389,8.494,8.494,0,0,0-1.331,2.282,23.744,23.744,0,0,0-.939,2.885c-.183.758-.2.8.573.8q4.14,0,8.281,0" transform="translate(-321.985 -27.252)" fill="#d9251c"/>
  </g>
</svg>
